# xmcd CD database file
#
# Track frame offsets:
#	150
#	28170
#	57463
#	83887
#	105085
#	126491
#	145191
#	170556
#	198172
#	223588
#
# Disc length: 3321 seconds
#
# Revision: 0
# Processed by: cddbd v1.4PL0 Copyright (c) Steve Scherf et al.
# Submitted via: CDex 1.50
#
DISCID=8d0cf70a
DTITLE=Chris Glassfield - BlueGlass
DYEAR=1900
DGENRE=New Age
TTITLE0=Skalite
TTITLE1=Sad Bossa
TTITLE2=ljexa
TTITLE3=Mouses
TTITLE4=Seaside
TTITLE5=Soft Eyes
TTITLE6=Horizons
TTITLE7=Tamarind
TTITLE8=Blue Bells
TTITLE9=Mystery Eyes
EXTD=
EXTT0=
EXTT1=
EXTT2=
EXTT3=
EXTT4=
EXTT5=
EXTT6=
EXTT7=
EXTT8=
EXTT9=
PLAYORDER=
